# xmcd
# 
# Track frame offsets:
#     150
#     21593
#     46812
#     69254
#     90786
#     112478
#     128176
#     152338
#     177099
#     199427
#     220153
#     243015
# 
# Disc length: 3563
# 
# Revision: 6
# Processed by: cddbd v1.5.2PL0 Copyright (c) Steve Scherf et al.
# Submitted via: fre:ac v1.0.17
# 
DISCID=9d0de90c
DTITLE=中孝介 - ユライ花
DYEAR=2007
DGENRE=JPop
TTITLE0=花
TTITLE1=サヨナラのない恋
TTITLE2=それぞれに
TTITLE3=波の物語
TTITLE4=Goin'on
TTITLE5=Ave Maria
TTITLE6=ひとさし指のメロディ
TTITLE7=真昼の花火
TTITLE8=恋の栞
TTITLE9=思い出のすぐそばで
TTITLE10=星空の下で
TTITLE11=家路(Acoustic Version)
EXTD=YEAR: 2007
EXTT0=
EXTT1=
EXTT2=
EXTT3=
EXTT4=
EXTT5=
EXTT6=
EXTT7=
EXTT8=
EXTT9=
EXTT10=
EXTT11=
PLAYORDER=
